<?xml version="1.0" encoding="UTF-8" standalone="no"?>
<!-- Created with Inkscape (http://www.inkscape.org/) -->

<svg
   width="210mm"
   height="297mm"
   viewBox="0 0 210 297"
   version="1.1"
   id="svg5"
   xml:space="preserve"
   inkscape:version="1.2.2 (b0a8486541, 2022-12-01)"
   sodipodi:docname="disegno.svg"
   xmlns:inkscape="http://www.inkscape.org/namespaces/inkscape"
   xmlns:sodipodi="http://sodipodi.sourceforge.net/DTD/sodipodi-0.dtd"
   xmlns:xlink="http://www.w3.org/1999/xlink"
   xmlns="http://www.w3.org/2000/svg"
   xmlns:svg="http://www.w3.org/2000/svg"><sodipodi:namedview
     id="namedview7"
     pagecolor="#ffffff"
     bordercolor="#000000"
     borderopacity="0.25"
     inkscape:showpageshadow="2"
     inkscape:pageopacity="0.0"
     inkscape:pagecheckerboard="0"
     inkscape:deskcolor="#d1d1d1"
     inkscape:document-units="mm"
     showgrid="false"
     inkscape:zoom="1.1476306"
     inkscape:cx="362.48598"
     inkscape:cy="521.0736"
     inkscape:window-width="1920"
     inkscape:window-height="1008"
     inkscape:window-x="0"
     inkscape:window-y="0"
     inkscape:window-maximized="1"
     inkscape:current-layer="layer1" /><defs
     id="defs2"><linearGradient
       inkscape:collect="always"
       id="linearGradient4182"><stop
         style="stop-color:#000094;stop-opacity:1;"
         offset="0"
         id="stop4178" /><stop
         style="stop-color:#0a39b9;stop-opacity:1;"
         offset="1"
         id="stop4180" /></linearGradient><linearGradient
       inkscape:collect="always"
       id="linearGradient1000"><stop
         style="stop-color:#202020;stop-opacity:1;"
         offset="0"
         id="stop996" /><stop
         style="stop-color:#333333;stop-opacity:1;"
         offset="1"
         id="stop998" /></linearGradient><linearGradient
       inkscape:collect="always"
       id="linearGradient11614"><stop
         style="stop-color:#666666;stop-opacity:1;"
         offset="0"
         id="stop11610" /><stop
         style="stop-color:#b4b4b4;stop-opacity:1;"
         offset="1"
         id="stop11612" /></linearGradient><linearGradient
       inkscape:collect="always"
       xlink:href="#linearGradient11614"
       id="linearGradient11616"
       x1="103.96693"
       y1="197.75877"
       x2="99.147964"
       y2="118.59673"
       gradientUnits="userSpaceOnUse" /><linearGradient
       inkscape:collect="always"
       xlink:href="#linearGradient1000"
       id="linearGradient1002"
       x1="107.60366"
       y1="195.92467"
       x2="100.48338"
       y2="110.05453"
       gradientUnits="userSpaceOnUse" /><linearGradient
       inkscape:collect="always"
       xlink:href="#linearGradient4182"
       id="linearGradient4184"
       x1="92.030609"
       y1="231.18025"
       x2="128.8232"
       y2="119.2868"
       gradientUnits="userSpaceOnUse" /><filter
       inkscape:collect="always"
       style="color-interpolation-filters:sRGB"
       id="filter6548"
       x="-0.053535765"
       y="-0.043501782"
       width="1.1070715"
       height="1.0870036"><feGaussianBlur
         inkscape:collect="always"
         stdDeviation="3.2327663"
         id="feGaussianBlur6550" /></filter><filter
       inkscape:collect="always"
       style="color-interpolation-filters:sRGB"
       id="filter6600"
       x="-0.047301781"
       y="-0.048719144"
       width="1.0946036"
       height="1.0974383"><feGaussianBlur
         inkscape:collect="always"
         stdDeviation="3.4133343"
         id="feGaussianBlur6602" /></filter></defs><g
     inkscape:label="Livello 1"
     inkscape:groupmode="layer"
     id="layer1"
     style="display:inline"><path
       style="display:inline;opacity:1;fill:url(#linearGradient11616);fill-opacity:1;stroke-width:0.264583"
       d="M 45.746328,105.58287 158.98012,88.947436 161.9281,200.84088 59.15766,198.69623 Z"
       id="path2945" /><path
       id="path6597"
       style="display:inline;opacity:1;mix-blend-mode:normal;fill:url(#linearGradient1002);fill-opacity:1;stroke:none;stroke-width:1.5;stroke-dasharray:none;stroke-opacity:1;filter:url(#filter6600)"
       d="m 166.5919,57.651261 c -1.93253,0.0479 -3.05305,0.439767 -3.05305,0.439767 L 30.722156,77.410779 c 0,0 -12.072265,3.216151 -13.686445,9.389939 C 15.669726,92.025227 16.2264,106.38782 16.2264,106.38782 l 13.95367,98.21158 c 0,0 4.20805,7.69284 6.980452,9.79475 2.772406,2.10191 9.653675,2.81688 9.653675,2.81688 l 122.093843,8.58294 c 0,0 10.37419,-3.57568 13.4152,-7.24297 3.041,-3.66728 4.83071,-14.76086 4.83071,-14.76086 l 2.14612,-124.770157 c 0,0 -2.8737,-11.510203 -8.32145,-15.832625 -5.50931,-4.371253 -10.33846,-5.437363 -13.50977,-5.533513 -0.30833,-0.0093 -0.60088,-0.0094 -0.87695,-0.0026 z m -18.08314,42.028443 -1.06918,85.595806 -79.154859,-0.5395 -10.998295,-72.44519 z"
       sodipodi:nodetypes="sccsccsccsccscssccccc" /><path
       id="path292"
       style="display:inline;opacity:1;mix-blend-mode:normal;fill:url(#linearGradient1002);fill-opacity:1;stroke:none;stroke-width:1.5;stroke-dasharray:none;stroke-opacity:1"
       d="m 166.5919,57.651261 c -1.93253,0.0479 -3.05305,0.439767 -3.05305,0.439767 L 30.722156,77.410779 c 0,0 -12.072265,3.216151 -13.686445,9.389939 C 15.669726,92.025227 16.2264,106.38782 16.2264,106.38782 l 13.95367,98.21158 c 0,0 4.20805,7.69284 6.980452,9.79475 2.772406,2.10191 9.653675,2.81688 9.653675,2.81688 l 122.093843,8.58294 c 0,0 10.37419,-3.57568 13.4152,-7.24297 3.041,-3.66728 4.83071,-14.76086 4.83071,-14.76086 l 2.14612,-124.770157 c 0,0 -2.8737,-11.510203 -8.32145,-15.832625 -5.50931,-4.371253 -10.33846,-5.437363 -13.50977,-5.533513 -0.30833,-0.0093 -0.60088,-0.0094 -0.87695,-0.0026 z m -18.08314,42.028443 -1.06918,85.595806 -79.154859,-0.5395 -10.998295,-72.44519 z"
       sodipodi:nodetypes="sccsccsccsccscssccccc" /><path
       style="display:inline;opacity:1;mix-blend-mode:normal;fill:#000000;fill-opacity:1;stroke:none;stroke-width:1.5;stroke-dasharray:none;stroke-opacity:1;filter:url(#filter6548)"
       d="m 26.69846,169.1796 62.245568,52.86019 c 0,0 10.699481,7.53537 16.500812,6.43838 10.96605,-2.07358 16.50082,-14.48636 16.50082,-14.48636 L 164.34151,72.847056 c 0,0 1.54103,-6.125918 -1.20277,-13.414037 -2.54554,-6.761484 -11.94128,-8.585249 -11.94128,-8.585249 0,0 -10.12725,-2.438621 -17.04718,2.414394 -6.20402,4.35094 -7.91237,12.07197 -7.91237,12.07197 L 94.580563,172.12905 c 0,0 -1.766742,1.69642 -2.839806,1.78559 -1.073063,0.0892 -3.598576,-1.25053 -3.598576,-1.25053 l -34.872613,-29.5122 c 0,0 -6.361261,-7.066 -15.1644,-6.71033 -7.741453,0.31277 -12.491566,5.10073 -12.491566,5.10073 0,0 -6.053986,3.82046 -5.754452,12.20463 0.37494,10.49483 6.83931,15.43266 6.83931,15.43266 z"
       id="path2948"
       sodipodi:nodetypes="ccsccscsccsccscsc" /><path
       style="display:inline;opacity:1;mix-blend-mode:normal;fill:url(#linearGradient4184);fill-opacity:1;stroke:none;stroke-width:1.5;stroke-dasharray:none;stroke-opacity:1"
       d="m 26.69846,169.1796 62.245568,52.86019 c 0,0 10.699481,7.53537 16.500812,6.43838 10.96605,-2.07358 16.50082,-14.48636 16.50082,-14.48636 L 164.34151,72.847056 c 0,0 1.54103,-6.125918 -1.20277,-13.414037 -2.54554,-6.761484 -11.94128,-8.585249 -11.94128,-8.585249 0,0 -10.12725,-2.438621 -17.04718,2.414394 -6.20402,4.35094 -7.91237,12.07197 -7.91237,12.07197 L 94.580563,172.12905 c 0,0 -1.766742,1.69642 -2.839806,1.78559 -1.073063,0.0892 -3.598576,-1.25053 -3.598576,-1.25053 l -34.872613,-29.5122 c 0,0 -6.361261,-7.066 -15.1644,-6.71033 -7.741453,0.31277 -12.491566,5.10073 -12.491566,5.10073 0,0 -6.053986,3.82046 -5.754452,12.20463 0.37494,10.49483 6.83931,15.43266 6.83931,15.43266 z"
       id="path6543"
       sodipodi:nodetypes="ccsccscsccsccscsc" /></g></svg>
